<mxfile host="app.diagrams.net" modified="2021-04-05T08:36:02.674Z" agent="5.0 (Windows NT 6.1; Win64; x64) AppleWebKit/537.36 (KHTML, like Gecko) Chrome/89.0.4389.114 Safari/537.36" etag="CK-zhj9OrhzRwBPDjHiO" version="14.5.7" type="github">
  <diagram id="No-DIlxWYlFoGNX_oKAj" name="Page-1">
    <mxGraphModel dx="1019" dy="555" grid="1" gridSize="10" guides="1" tooltips="1" connect="1" arrows="1" fold="1" page="1" pageScale="1" pageWidth="1169" pageHeight="827" math="0" shadow="0">
      <root>
        <mxCell id="0" />
        <mxCell id="1" parent="0" />
        <mxCell id="L--OyVzDLJhabQc2bv2y-1" value="" style="ellipse;whiteSpace=wrap;html=1;aspect=fixed;" vertex="1" parent="1">
          <mxGeometry x="200" y="340" width="140" height="140" as="geometry" />
        </mxCell>
        <mxCell id="L--OyVzDLJhabQc2bv2y-2" value="" style="ellipse;whiteSpace=wrap;html=1;aspect=fixed;" vertex="1" parent="1">
          <mxGeometry x="545" y="340" width="140" height="140" as="geometry" />
        </mxCell>
        <mxCell id="L--OyVzDLJhabQc2bv2y-3" value="" style="shape=process;whiteSpace=wrap;html=1;backgroundOutline=1;fillColor=#FFFFFF;" vertex="1" parent="1">
          <mxGeometry x="555" y="45" width="120" height="60" as="geometry" />
        </mxCell>
        <mxCell id="L--OyVzDLJhabQc2bv2y-6" value="" style="endArrow=classic;html=1;fontSize=14;entryX=0;entryY=0;entryDx=0;entryDy=0;" edge="1" parent="1">
          <mxGeometry width="50" height="50" relative="1" as="geometry">
            <mxPoint x="60" y="409.5" as="sourcePoint" />
            <mxPoint x="190" y="409.5" as="targetPoint" />
          </mxGeometry>
        </mxCell>
        <mxCell id="L--OyVzDLJhabQc2bv2y-7" value="" style="endArrow=classic;html=1;fontSize=14;entryX=0;entryY=0;entryDx=0;entryDy=0;" edge="1" parent="1">
          <mxGeometry width="50" height="50" relative="1" as="geometry">
            <mxPoint x="1020" y="409.5" as="sourcePoint" />
            <mxPoint x="1150" y="409.5" as="targetPoint" />
          </mxGeometry>
        </mxCell>
        <mxCell id="L--OyVzDLJhabQc2bv2y-8" value="Data User" style="text;html=1;strokeColor=none;fillColor=none;align=center;verticalAlign=middle;whiteSpace=wrap;rounded=0;" vertex="1" parent="1">
          <mxGeometry x="90" y="380" width="70" height="20" as="geometry" />
        </mxCell>
        <mxCell id="L--OyVzDLJhabQc2bv2y-9" value="Status Register" style="text;html=1;strokeColor=none;fillColor=none;align=center;verticalAlign=middle;whiteSpace=wrap;rounded=0;" vertex="1" parent="1">
          <mxGeometry x="1020" y="380" width="100" height="20" as="geometry" />
        </mxCell>
        <mxCell id="L--OyVzDLJhabQc2bv2y-10" value="1.1&lt;br style=&quot;font-size: 15px;&quot;&gt;Input Data&lt;br style=&quot;font-size: 15px;&quot;&gt;Pengguna" style="text;html=1;strokeColor=none;fillColor=none;align=center;verticalAlign=middle;whiteSpace=wrap;rounded=0;fontSize=15;" vertex="1" parent="1">
          <mxGeometry x="200" y="365" width="140" height="90" as="geometry" />
        </mxCell>
        <mxCell id="L--OyVzDLJhabQc2bv2y-11" value="1.2&lt;br&gt;Validasi Data" style="text;html=1;strokeColor=none;fillColor=none;align=center;verticalAlign=middle;whiteSpace=wrap;rounded=0;fontSize=15;" vertex="1" parent="1">
          <mxGeometry x="550" y="370" width="130" height="80" as="geometry" />
        </mxCell>
        <mxCell id="L--OyVzDLJhabQc2bv2y-12" value="USER" style="text;html=1;strokeColor=none;fillColor=none;align=center;verticalAlign=middle;whiteSpace=wrap;rounded=0;fontSize=15;" vertex="1" parent="1">
          <mxGeometry x="565" y="60" width="90" height="30" as="geometry" />
        </mxCell>
        <mxCell id="L--OyVzDLJhabQc2bv2y-13" value="" style="endArrow=classic;html=1;fontSize=14;" edge="1" parent="1">
          <mxGeometry width="50" height="50" relative="1" as="geometry">
            <mxPoint x="340" y="409.5" as="sourcePoint" />
            <mxPoint x="540" y="410" as="targetPoint" />
          </mxGeometry>
        </mxCell>
        <mxCell id="L--OyVzDLJhabQc2bv2y-14" value="" style="endArrow=classic;html=1;fontSize=14;" edge="1" parent="1">
          <mxGeometry width="50" height="50" relative="1" as="geometry">
            <mxPoint x="685" y="409.5" as="sourcePoint" />
            <mxPoint x="885" y="410" as="targetPoint" />
          </mxGeometry>
        </mxCell>
        <mxCell id="L--OyVzDLJhabQc2bv2y-15" value="" style="ellipse;whiteSpace=wrap;html=1;aspect=fixed;" vertex="1" parent="1">
          <mxGeometry x="880" y="340" width="140" height="140" as="geometry" />
        </mxCell>
        <mxCell id="L--OyVzDLJhabQc2bv2y-16" value="1.3&lt;br&gt;Menampilkan Status&lt;br&gt;Register" style="text;html=1;strokeColor=none;fillColor=none;align=center;verticalAlign=middle;whiteSpace=wrap;rounded=0;fontSize=15;" vertex="1" parent="1">
          <mxGeometry x="885" y="370" width="130" height="80" as="geometry" />
        </mxCell>
        <mxCell id="L--OyVzDLJhabQc2bv2y-18" value="" style="endArrow=classic;html=1;exitX=0.393;exitY=0;exitDx=0;exitDy=0;exitPerimeter=0;" edge="1" parent="1" source="L--OyVzDLJhabQc2bv2y-2">
          <mxGeometry width="50" height="50" relative="1" as="geometry">
            <mxPoint x="520" y="330" as="sourcePoint" />
            <mxPoint x="600" y="110" as="targetPoint" />
          </mxGeometry>
        </mxCell>
        <mxCell id="L--OyVzDLJhabQc2bv2y-19" value="" style="endArrow=classic;html=1;exitX=0.683;exitY=1.061;exitDx=0;exitDy=0;exitPerimeter=0;entryX=0.657;entryY=0;entryDx=0;entryDy=0;entryPerimeter=0;" edge="1" parent="1" source="L--OyVzDLJhabQc2bv2y-3" target="L--OyVzDLJhabQc2bv2y-2">
          <mxGeometry width="50" height="50" relative="1" as="geometry">
            <mxPoint x="800.02" y="335" as="sourcePoint" />
            <mxPoint x="800" y="105" as="targetPoint" />
          </mxGeometry>
        </mxCell>
      </root>
    </mxGraphModel>
  </diagram>
</mxfile>
